{
    "asset" : {
        "generator" : "Khronos glTF Blender I/O v1.3.48",
        "version" : "2.0"
    },
    "scene" : 0,
    "scenes" : [
        {
            "extras" : {
                "glTF2ExportSettings" : {
                    "export_all_influences" : 1,
                    "export_animations" : 1,
                    "export_apply" : 0,
                    "export_colors" : 0,
                    "export_current_frame" : 1,
                    "export_def_bones" : 1,
                    "export_draco_mesh_compression_enable" : 0,
                    "export_extras" : 1,
                    "export_force_sampling" : 0,
                    "export_format" : "GLTF_EMBEDDED",
                    "export_image_format" : "JPEG",
                    "export_morph" : 0,
                    "export_nla_strips" : 1,
                    "export_normals" : 0,
                    "use_selection" : 1
                }
            },
            "name" : "folded",
            "nodes" : [
                0
            ]
        },
        {
            "extras" : {
                "glTF2ExportSettings" : {
                    "export_colors" : 0,
                    "export_draco_mesh_compression_enable" : 0,
                    "export_extras" : 0,
                    "export_format" : "GLB",
                    "export_image_format" : "JPEG",
                    "export_texture_dir" : "textures"
                }
            },
            "name" : "unfolded",
            "nodes" : [
                1
            ]
        }
    ],
    "nodes" : [
        {
            "mesh" : 0,
            "name" : "box",
            "scale" : [
                3,
                3,
                3
            ]
        },
        {
            "mesh" : 0,
            "name" : "box",
            "scale" : [
                3,
                3,
                3
            ]
        }
    ],
    "materials" : [
        {
            "doubleSided" : true,
            "emissiveFactor" : [
                0,
                0,
                0
            ],
            "name" : "box",
            "pbrMetallicRoughness" : {
                "baseColorTexture" : {
                    "index" : 0,
                    "texCoord" : 0
                },
                "metallicFactor" : 0,
                "roughnessFactor" : 0.5
            }
        }
    ],
    "meshes" : [
        {
            "name" : "boxVertices",
            "primitives" : [
                {
                    "attributes" : {
                        "POSITION" : 0,
                        "TEXCOORD_0" : 1
                    },
                    "indices" : 2,
                    "material" : 0
                }
            ]
        }
    ],
    "textures" : [
        {
            "source" : 0
        }
    ],
    "images" : [
        {
            "bufferView" : 3,
            "mimeType" : "image/jpeg",
            "name" : "editmap"
        }
    ],
    "accessors" : [
        {
            "bufferView" : 0,
            "componentType" : 5126,
            "count" : 76,
            "max" : [
                0.32837629318237305,
                0.6438069343566895,
                0.15240004658699036
            ],
            "min" : [
                -0.3283764123916626,
                0,
                -0.3047999143600464
            ],
            "type" : "VEC3"
        },
        {
            "bufferView" : 1,
            "componentType" : 5126,
            "count" : 76,
            "type" : "VEC2"
        },
        {
            "bufferView" : 2,
            "componentType" : 5123,
            "count" : 120,
            "type" : "SCALAR"
        }
    ],
    "bufferViews" : [
        {
            "buffer" : 0,
            "byteLength" : 912,
            "byteOffset" : 0
        },
        {
            "buffer" : 0,
            "byteLength" : 608,
            "byteOffset" : 912
        },
        {
            "buffer" : 0,
            "byteLength" : 240,
            "byteOffset" : 1520
        },
        {
            "buffer" : 0,
            "byteLength" : 25615,
            "byteOffset" : 1760
        }
    ],
    "buffers" : [
        {
            "byteLength" : 27376,
            "uri" : "data:application/octet-stream;base64,"
        }
    ]
}
